# xmcd
#
# Track frame offsets: 
#        150
#        16656
#        51725
#        72916
#        104894
#        118881
#        134762
#        154305
#
# Disc length: 2430 seconds
#
# Revision: 0
# Processed by: cddbd v1.5PL3 Copyright (c) Steve Scherf et al.
# Submitted via: ExactAudioCopy v0.95a4
#
DISCID=7e097c08
DTITLE=Travis Haddix - Dance To The Blues
DYEAR=1997
DGENRE=Blues
TTITLE0=Dance To The Blues
TTITLE1=Time To Take Charge
TTITLE2=Too Many Irons In The Fire
TTITLE3=Man Of The House
TTITLE4=Everything Is Everything
TTITLE5=Looking Haughty
TTITLE6=Wasting years
TTITLE7=Two Head Are Better Than One
EXTD=
EXTT0=
EXTT1=
EXTT2=
EXTT3=
EXTT4=
EXTT5=
EXTT6=
EXTT7=
PLAYORDER=
